<?xml version="1.0" encoding="UTF-8" standalone="no"?>
<!DOCTYPE svg PUBLIC "-//W3C//DTD SVG 1.1//EN" "http://www.w3.org/Graphics/SVG/1.1/DTD/svg11.dtd">
<svg width="100%" height="100%" viewBox="0 0 1361 229" version="1.1"
    xmlns="http://www.w3.org/2000/svg"
    xmlns:xlink="http://www.w3.org/1999/xlink" xml:space="preserve"
    xmlns:serif="http://www.serif.com/" style="fill-rule:evenodd;clip-rule:evenodd;stroke-linecap:round;stroke-linejoin:round;stroke-miterlimit:1.5;">
    <g transform="matrix(1,0,0,1,-59.0551,-182.069)">
        <g transform="matrix(0.617394,0,0,0.617394,3.48962,173.872)">
            <g id="場所A" transform="matrix(0.517241,0,0,0.517241,-13.4483,-38.7931)">
                <g id="ナンバリングA" transform="matrix(1,0,0,1,-640,-1080)">
                    <g id="ナンバリング枠A" transform="matrix(0.78125,0,0,0.192308,277.5,1173.08)">
                        <path d="M1040,714.427L1040,1125.57C1040,1155.61 1034,1180 1026.6,1180L733.397,1180C726.003,1180 720,1155.61 720,1125.57L720,714.427C720,684.388 726.003,660 733.397,660L1026.6,660C1034,660 1040,684.388 1040,714.427Z" style="fill:rgb(68,153,186);"/>
                    </g>
                    <g id="ナンバリング文字A" transform="matrix(1,0,0,1,7.08,-0.8)">
                        <g transform="matrix(80,0,0,80,1052,1380)">
                        </g>
                        <text x="860px" y="1380px" style="font-family:'JetBrainsMono-Bold', 'JetBrains Mono', monospace;font-weight:700;font-size:80px;fill:white;">2-5G</text>
                    </g>
                </g>
                <g id="場所名A" transform="matrix(0.678669,0,0,0.678669,132.643,85.0863)">
                    <g transform="matrix(125.644,0,0,125.644,1099.72,320)">
                    </g>
                    <text x="520px" y="320px" style="font-family:'TazuganeGothicStdN-Regular', 'Tazugane Gothic StdN', sans-serif;font-size:125.644px;">高1-2教室</text>
                </g>
            </g>
            <g id="場所B" transform="matrix(0.517241,0,0,0.517241,-13.4483,-100.517)">
                <g id="ナンバリングB" transform="matrix(1,0,0,1,-640,-1080)">
                    <g id="ナンバリング枠B" transform="matrix(0.78125,0,0,0.192308,277.5,1173.08)">
                        <path d="M1040,714.427L1040,1125.57C1040,1155.61 1034,1180 1026.6,1180L733.397,1180C726.003,1180 720,1155.61 720,1125.57L720,714.427C720,684.388 726.003,660 733.397,660L1026.6,660C1034,660 1040,684.388 1040,714.427Z" style="fill:rgb(68,153,186);"/>
                    </g>
                    <g id="ナンバリング文字B" transform="matrix(1,0,0,1,7.08,-0.8)">
                        <g transform="matrix(80,0,0,80,1052,1380)">
                        </g>
                        <text x="860px" y="1380px" style="font-family:'JetBrainsMono-Bold', 'JetBrains Mono', monospace;font-weight:700;font-size:80px;fill:white;">2-5F</text>
                    </g>
                </g>
                <g id="場所名B" transform="matrix(0.678669,0,0,0.678669,132.643,85.0863)">
                    <g transform="matrix(125.644,0,0,125.644,1099.72,320)">
                    </g>
                    <text x="520px" y="320px" style="font-family:'TazuganeGothicStdN-Regular', 'Tazugane Gothic StdN', sans-serif;font-size:125.644px;">高1-3教室</text>
                </g>
            </g>
            <g id="企画画像" transform="matrix(0.254381,0,0,0.318847,54.3867,3.76004)">
                <path d="M1360,486.5L1360,1143.5C1360,1163.64 1339.5,1180 1314.25,1180L185.75,1180C160.5,1180 140,1163.64 140,1143.5L140,486.5C140,466.355 160.5,450 185.75,450L1314.25,450C1339.5,450 1360,466.355 1360,486.5Z" style="fill:rgb(235,235,235);"/>
            </g>
            <g id="タグ">
                <g>
                    <g transform="matrix(0.369231,0,0,0.242424,259.077,246.667)">
                        <path d="M815,401.5L815,533.5C815,542.607 810.146,550 804.167,550L500.833,550C494.854,550 490,542.607 490,533.5L490,401.5C490,392.393 494.854,385 500.833,385L804.167,385C810.146,385 815,392.393 815,401.5Z" style="fill:rgb(190,220,255);"/>
                    </g>
                    <g transform="matrix(0.906393,0,0,0.906393,49.2962,33.6986)">
                        <g transform="matrix(0.709008,0,0,0.709008,169.986,82.9641)">
                            <g transform="matrix(37.6508,0,0,37.6508,427,405)">
                                <path d="M0.701,-0.628L0.815,-0.595C0.773,-0.474 0.719,-0.37 0.653,-0.282C0.587,-0.194 0.508,-0.119 0.416,-0.059C0.324,0.002 0.218,0.051 0.098,0.089C0.094,0.08 0.088,0.069 0.08,0.056C0.072,0.043 0.063,0.03 0.054,0.017C0.045,0.004 0.037,-0.007 0.03,-0.015C0.146,-0.047 0.248,-0.089 0.335,-0.143C0.422,-0.197 0.496,-0.263 0.557,-0.343C0.617,-0.423 0.666,-0.518 0.701,-0.628ZM0.295,-0.621C0.33,-0.52 0.378,-0.429 0.438,-0.349C0.499,-0.268 0.573,-0.2 0.663,-0.144C0.752,-0.088 0.856,-0.047 0.974,-0.019C0.966,-0.011 0.957,-0 0.947,0.012C0.937,0.025 0.927,0.039 0.919,0.052C0.91,0.065 0.902,0.077 0.897,0.087C0.773,0.055 0.665,0.008 0.575,-0.054C0.484,-0.116 0.408,-0.192 0.345,-0.281C0.283,-0.37 0.23,-0.473 0.188,-0.589L0.295,-0.621ZM0.046,-0.685L0.959,-0.685L0.959,-0.58L0.046,-0.58L0.046,-0.685ZM0.444,-0.847L0.555,-0.847L0.555,-0.621L0.444,-0.621L0.444,-0.847Z" style="fill:rgb(0,84,176);fill-rule:nonzero;"/>
                            </g>
                            <g transform="matrix(37.6508,0,0,37.6508,464.651,405)">
                                <path d="M0.48,-0.821L0.589,-0.821L0.589,-0.095C0.589,-0.075 0.59,-0.06 0.593,-0.05C0.595,-0.041 0.601,-0.034 0.61,-0.031C0.618,-0.028 0.631,-0.026 0.648,-0.026L0.808,-0.026C0.825,-0.026 0.838,-0.031 0.846,-0.041C0.855,-0.05 0.861,-0.068 0.865,-0.094C0.869,-0.12 0.872,-0.157 0.874,-0.204C0.888,-0.194 0.904,-0.185 0.923,-0.176C0.942,-0.168 0.959,-0.162 0.974,-0.158C0.97,-0.101 0.963,-0.056 0.953,-0.022C0.943,0.012 0.927,0.037 0.906,0.052C0.885,0.067 0.855,0.074 0.817,0.074L0.635,0.074C0.595,0.074 0.564,0.069 0.542,0.059C0.519,0.049 0.503,0.032 0.494,0.007C0.485,-0.018 0.48,-0.052 0.48,-0.096L0.48,-0.821ZM0.855,-0.654L0.934,-0.561C0.898,-0.534 0.858,-0.508 0.815,-0.482C0.772,-0.456 0.728,-0.431 0.683,-0.408C0.638,-0.384 0.594,-0.361 0.55,-0.341C0.546,-0.353 0.54,-0.368 0.531,-0.384C0.522,-0.4 0.514,-0.414 0.506,-0.426C0.548,-0.446 0.59,-0.47 0.633,-0.495C0.675,-0.521 0.715,-0.548 0.754,-0.575C0.792,-0.603 0.826,-0.629 0.855,-0.654ZM0.292,-0.833L0.398,-0.798C0.373,-0.739 0.343,-0.68 0.309,-0.622C0.274,-0.564 0.237,-0.51 0.198,-0.459C0.158,-0.408 0.117,-0.363 0.075,-0.325C0.072,-0.334 0.066,-0.346 0.059,-0.36C0.051,-0.374 0.043,-0.388 0.035,-0.403C0.027,-0.417 0.019,-0.429 0.013,-0.437C0.049,-0.468 0.085,-0.505 0.12,-0.547C0.155,-0.589 0.187,-0.635 0.217,-0.683C0.246,-0.732 0.271,-0.782 0.292,-0.833ZM0.184,-0.557L0.29,-0.663L0.291,-0.661L0.291,0.085L0.184,0.085L0.184,-0.557Z" style="fill:rgb(0,84,176);fill-rule:nonzero;"/>
                            </g>
                            <g transform="matrix(37.6508,0,0,37.6508,502.302,405)">
                                <path d="M0.587,-0.789L0.881,-0.789L0.881,-0.688L0.692,-0.688L0.692,0.087L0.587,0.087L0.587,-0.789ZM0.059,-0.747L0.541,-0.747L0.541,-0.653L0.059,-0.653L0.059,-0.747ZM0.036,-0.468L0.554,-0.468L0.554,-0.371L0.036,-0.371L0.036,-0.468ZM0.247,-0.841L0.352,-0.841L0.352,-0.688L0.247,-0.688L0.247,-0.841ZM0.118,-0.623L0.207,-0.642C0.217,-0.619 0.226,-0.594 0.233,-0.565C0.241,-0.537 0.246,-0.512 0.249,-0.492L0.155,-0.47C0.154,-0.491 0.15,-0.515 0.142,-0.544C0.135,-0.573 0.127,-0.599 0.118,-0.623ZM0.391,-0.647L0.492,-0.625C0.482,-0.597 0.471,-0.569 0.46,-0.54C0.45,-0.512 0.44,-0.488 0.43,-0.468L0.345,-0.49C0.351,-0.504 0.357,-0.521 0.363,-0.539C0.369,-0.557 0.374,-0.576 0.379,-0.595C0.384,-0.614 0.388,-0.631 0.391,-0.647ZM0.133,-0.058L0.448,-0.058L0.448,0.035L0.133,0.035L0.133,-0.058ZM0.097,-0.298L0.506,-0.298L0.506,0.084L0.402,0.084L0.402,-0.205L0.196,-0.205L0.196,0.088L0.097,0.088L0.097,-0.298ZM0.853,-0.789L0.874,-0.789L0.891,-0.793L0.969,-0.744C0.951,-0.696 0.93,-0.645 0.909,-0.591C0.887,-0.537 0.865,-0.488 0.845,-0.445C0.874,-0.415 0.897,-0.386 0.912,-0.358C0.927,-0.33 0.938,-0.304 0.944,-0.279C0.949,-0.254 0.952,-0.23 0.952,-0.207C0.952,-0.172 0.948,-0.142 0.939,-0.118C0.931,-0.094 0.917,-0.075 0.899,-0.063C0.88,-0.05 0.858,-0.042 0.831,-0.038C0.819,-0.037 0.806,-0.036 0.792,-0.036C0.778,-0.036 0.763,-0.036 0.749,-0.036C0.748,-0.051 0.746,-0.068 0.741,-0.089C0.737,-0.109 0.73,-0.126 0.722,-0.141C0.734,-0.14 0.745,-0.139 0.756,-0.139C0.767,-0.139 0.776,-0.139 0.784,-0.14C0.792,-0.14 0.799,-0.141 0.805,-0.143C0.812,-0.144 0.818,-0.146 0.823,-0.15C0.832,-0.155 0.839,-0.164 0.843,-0.176C0.846,-0.188 0.848,-0.203 0.848,-0.22C0.848,-0.249 0.841,-0.281 0.826,-0.317C0.811,-0.353 0.781,-0.391 0.738,-0.431C0.749,-0.456 0.759,-0.483 0.77,-0.512C0.781,-0.542 0.792,-0.572 0.803,-0.601C0.813,-0.631 0.823,-0.659 0.831,-0.686C0.84,-0.712 0.847,-0.734 0.853,-0.752L0.853,-0.789Z" style="fill:rgb(0,84,176);fill-rule:nonzero;"/>
                            </g>
                            <g transform="matrix(37.6508,0,0,37.6508,539.952,405)">
                            </g>
                        </g>
                        <g transform="matrix(1.04167,0,0,1.04167,455,360)">
                            <g transform="matrix(1,0,0,1,-12,-12)">
                                <g transform="matrix(0.025,0,0,0.025,0,24)">
                                    <path d="M240,-160L280,-320L120,-320L140,-400L300,-400L340,-560L180,-560L200,-640L360,-640L400,-800L480,-800L440,-640L600,-640L640,-800L720,-800L680,-640L840,-640L820,-560L660,-560L620,-400L780,-400L760,-320L600,-320L560,-160L480,-160L520,-320L360,-320L320,-160L240,-160ZM380,-400L540,-400L580,-560L420,-560L380,-400Z" style="fill:rgb(0,83,176);fill-rule:nonzero;"/>
                                </g>
                            </g>
                        </g>
                    </g>
                </g>
                <g transform="matrix(1,0,0,1,130,-5.68434e-14)">
                    <g transform="matrix(0.449231,0,0,0.242424,219.877,246.667)">
                        <path d="M815,401.5L815,533.5C815,542.607 811.01,550 806.096,550L498.904,550C493.99,550 490,542.607 490,533.5L490,401.5C490,392.393 493.99,385 498.904,385L806.096,385C811.01,385 815,392.393 815,401.5Z" style="fill:rgb(190,220,255);"/>
                    </g>
                    <g transform="matrix(0.906393,0,0,0.906393,50.1257,33.6102)">
                        <g transform="matrix(0.709008,0,0,0.709008,169.986,82.9641)">
                            <g transform="matrix(37.6508,0,0,37.6508,427,405)">
                                <path d="M0.141,-0.69C0.154,-0.688 0.169,-0.687 0.187,-0.686C0.205,-0.684 0.22,-0.684 0.232,-0.684L0.778,-0.684C0.794,-0.684 0.809,-0.685 0.825,-0.686C0.841,-0.687 0.856,-0.688 0.87,-0.69L0.87,-0.566C0.855,-0.568 0.84,-0.569 0.824,-0.57C0.808,-0.57 0.793,-0.571 0.778,-0.571L0.232,-0.571C0.22,-0.571 0.205,-0.57 0.187,-0.57C0.169,-0.569 0.154,-0.568 0.141,-0.566L0.141,-0.69ZM0.435,-0.082L0.435,-0.621L0.559,-0.621L0.559,-0.082L0.435,-0.082ZM0.077,-0.155C0.093,-0.153 0.109,-0.151 0.125,-0.15C0.142,-0.149 0.158,-0.148 0.173,-0.148L0.833,-0.148C0.85,-0.148 0.866,-0.149 0.881,-0.15C0.896,-0.152 0.91,-0.154 0.923,-0.155L0.923,-0.026C0.909,-0.028 0.893,-0.029 0.876,-0.029C0.858,-0.03 0.844,-0.03 0.833,-0.03L0.173,-0.03C0.158,-0.03 0.143,-0.03 0.126,-0.029C0.11,-0.029 0.093,-0.028 0.077,-0.026L0.077,-0.155Z" style="fill:rgb(0,84,176);fill-rule:nonzero;"/>
                            </g>
                            <g transform="matrix(37.6508,0,0,37.6508,464.651,405)">
                                <path d="M0.237,-0.753C0.255,-0.741 0.275,-0.726 0.298,-0.708C0.322,-0.691 0.346,-0.672 0.37,-0.652C0.395,-0.632 0.418,-0.612 0.44,-0.593C0.462,-0.574 0.48,-0.557 0.494,-0.542L0.403,-0.45C0.391,-0.463 0.374,-0.48 0.353,-0.499C0.333,-0.518 0.311,-0.538 0.287,-0.558C0.263,-0.579 0.239,-0.598 0.216,-0.617C0.193,-0.635 0.172,-0.651 0.153,-0.663L0.237,-0.753ZM0.123,-0.085C0.177,-0.093 0.227,-0.104 0.274,-0.118C0.32,-0.132 0.363,-0.147 0.403,-0.165C0.443,-0.183 0.479,-0.201 0.511,-0.22C0.566,-0.254 0.617,-0.292 0.663,-0.335C0.709,-0.378 0.749,-0.422 0.784,-0.469C0.819,-0.515 0.846,-0.56 0.867,-0.603L0.936,-0.479C0.911,-0.434 0.881,-0.39 0.845,-0.346C0.809,-0.302 0.768,-0.26 0.723,-0.221C0.678,-0.181 0.629,-0.145 0.576,-0.112C0.542,-0.092 0.505,-0.072 0.466,-0.053C0.426,-0.034 0.384,-0.017 0.34,-0.003C0.295,0.012 0.248,0.024 0.198,0.032L0.123,-0.085Z" style="fill:rgb(0,84,176);fill-rule:nonzero;"/>
                            </g>
                            <g transform="matrix(37.6508,0,0,37.6508,502.302,405)">
                                <path d="M0.425,-0.465C0.456,-0.447 0.49,-0.427 0.526,-0.403C0.562,-0.38 0.598,-0.356 0.635,-0.331C0.672,-0.306 0.706,-0.281 0.739,-0.258C0.772,-0.234 0.8,-0.212 0.823,-0.193L0.738,-0.092C0.716,-0.113 0.689,-0.136 0.656,-0.162C0.624,-0.188 0.59,-0.214 0.553,-0.241C0.516,-0.268 0.48,-0.294 0.444,-0.319C0.408,-0.344 0.375,-0.366 0.346,-0.384L0.425,-0.465ZM0.892,-0.639C0.886,-0.63 0.881,-0.62 0.875,-0.608C0.87,-0.596 0.865,-0.584 0.861,-0.572C0.851,-0.541 0.838,-0.506 0.821,-0.468C0.804,-0.43 0.783,-0.392 0.76,-0.352C0.737,-0.313 0.71,-0.275 0.68,-0.238C0.634,-0.18 0.577,-0.125 0.51,-0.073C0.444,-0.021 0.363,0.024 0.267,0.06L0.164,-0.03C0.232,-0.051 0.291,-0.076 0.342,-0.105C0.393,-0.134 0.438,-0.165 0.477,-0.199C0.515,-0.232 0.549,-0.266 0.578,-0.3C0.601,-0.328 0.623,-0.358 0.644,-0.392C0.665,-0.425 0.683,-0.459 0.698,-0.492C0.713,-0.526 0.724,-0.556 0.73,-0.583L0.383,-0.583L0.425,-0.684L0.719,-0.684C0.734,-0.684 0.749,-0.685 0.763,-0.687C0.778,-0.689 0.79,-0.692 0.8,-0.696L0.892,-0.639ZM0.559,-0.79C0.548,-0.774 0.538,-0.756 0.527,-0.738C0.516,-0.719 0.508,-0.705 0.502,-0.695C0.481,-0.656 0.453,-0.614 0.419,-0.569C0.385,-0.525 0.347,-0.481 0.304,-0.438C0.261,-0.395 0.215,-0.357 0.165,-0.322L0.069,-0.396C0.127,-0.433 0.177,-0.471 0.218,-0.512C0.26,-0.553 0.294,-0.593 0.322,-0.631C0.35,-0.67 0.372,-0.704 0.388,-0.733C0.395,-0.744 0.403,-0.759 0.411,-0.778C0.42,-0.797 0.426,-0.815 0.43,-0.831L0.559,-0.79Z" style="fill:rgb(0,84,176);fill-rule:nonzero;"/>
                            </g>
                            <g transform="matrix(37.6508,0,0,37.6508,538.823,405)">
                                <path d="M0.834,-0.733C0.828,-0.722 0.821,-0.708 0.813,-0.691C0.805,-0.674 0.799,-0.659 0.795,-0.648C0.782,-0.615 0.767,-0.579 0.749,-0.54C0.731,-0.501 0.711,-0.462 0.689,-0.423C0.666,-0.383 0.641,-0.346 0.614,-0.31C0.583,-0.27 0.548,-0.229 0.508,-0.188C0.469,-0.147 0.424,-0.106 0.374,-0.067C0.324,-0.028 0.267,0.01 0.202,0.045L0.103,-0.046C0.194,-0.089 0.273,-0.14 0.339,-0.196C0.406,-0.253 0.465,-0.315 0.517,-0.383C0.557,-0.435 0.59,-0.487 0.615,-0.539C0.64,-0.592 0.661,-0.643 0.678,-0.692C0.683,-0.705 0.687,-0.719 0.691,-0.736C0.695,-0.753 0.699,-0.767 0.701,-0.779L0.834,-0.733ZM0.29,-0.631C0.315,-0.615 0.342,-0.598 0.37,-0.578C0.399,-0.559 0.427,-0.54 0.456,-0.52C0.485,-0.5 0.513,-0.48 0.539,-0.461C0.565,-0.441 0.588,-0.423 0.608,-0.407C0.661,-0.366 0.712,-0.323 0.762,-0.278C0.812,-0.234 0.857,-0.19 0.897,-0.146L0.806,-0.045C0.763,-0.095 0.719,-0.141 0.673,-0.184C0.628,-0.226 0.58,-0.269 0.528,-0.313C0.51,-0.328 0.489,-0.345 0.466,-0.363C0.442,-0.381 0.417,-0.401 0.39,-0.421C0.362,-0.441 0.334,-0.461 0.304,-0.481C0.274,-0.501 0.244,-0.521 0.214,-0.54L0.29,-0.631Z" style="fill:rgb(0,84,176);fill-rule:nonzero;"/>
                            </g>
                            <g transform="matrix(37.6508,0,0,37.6508,576.473,405)">
                            </g>
                        </g>
                        <g transform="matrix(1.04167,0,0,1.04167,455,360)">
                            <g transform="matrix(1,0,0,1,-12,-12)">
                                <g transform="matrix(0.025,0,0,0.025,0,24)">
                                    <path d="M240,-160L280,-320L120,-320L140,-400L300,-400L340,-560L180,-560L200,-640L360,-640L400,-800L480,-800L440,-640L600,-640L640,-800L720,-800L680,-640L840,-640L820,-560L660,-560L620,-400L780,-400L760,-320L600,-320L560,-160L480,-160L520,-320L360,-320L320,-160L240,-160ZM380,-400L540,-400L580,-560L420,-560L380,-400Z" style="fill:rgb(0,83,176);fill-rule:nonzero;"/>
                                </g>
                            </g>
                        </g>
                    </g>
                </g>
                <g transform="matrix(1,0,0,1,286,0)">
                    <g transform="matrix(0.449231,0,0,0.242424,219.877,246.667)">
                        <path d="M815,401.5L815,533.5C815,542.607 811.01,550 806.096,550L498.904,550C493.99,550 490,542.607 490,533.5L490,401.5C490,392.393 493.99,385 498.904,385L806.096,385C811.01,385 815,392.393 815,401.5Z" style="fill:rgb(190,220,255);"/>
                    </g>
                    <g transform="matrix(0.906393,0,0,0.906393,50.1257,33.6102)">
                        <g transform="matrix(0.709008,0,0,0.709008,169.986,82.9641)">
                            <g transform="matrix(37.6508,0,0,37.6508,427,405)">
                                <path d="M0.105,-0.747L0.9,-0.747L0.9,-0.662L0.105,-0.662L0.105,-0.747ZM0.153,-0.612L0.85,-0.612L0.85,-0.533L0.153,-0.533L0.153,-0.612ZM0.323,-0.233L0.786,-0.233L0.786,-0.171L0.323,-0.171L0.323,-0.233ZM0.323,-0.129L0.786,-0.129L0.786,-0.067L0.323,-0.067L0.323,-0.129ZM0.322,-0.023L0.796,-0.023L0.796,0.054L0.322,0.054L0.322,-0.023ZM0.059,-0.483L0.94,-0.483L0.94,-0.398L0.059,-0.398L0.059,-0.483ZM0.443,-0.686L0.554,-0.686L0.554,-0.416L0.443,-0.416L0.443,-0.686ZM0.23,-0.818L0.324,-0.849C0.338,-0.834 0.351,-0.817 0.364,-0.799C0.376,-0.78 0.385,-0.764 0.391,-0.748L0.292,-0.711C0.287,-0.726 0.279,-0.744 0.267,-0.764C0.255,-0.784 0.242,-0.802 0.23,-0.818ZM0.666,-0.85L0.783,-0.819C0.768,-0.8 0.753,-0.782 0.738,-0.764C0.724,-0.747 0.711,-0.732 0.7,-0.719L0.609,-0.748C0.619,-0.763 0.629,-0.78 0.64,-0.799C0.651,-0.818 0.66,-0.835 0.666,-0.85ZM0.274,-0.443L0.38,-0.418C0.351,-0.337 0.313,-0.263 0.264,-0.196C0.216,-0.129 0.162,-0.074 0.103,-0.031C0.098,-0.038 0.091,-0.047 0.081,-0.057C0.071,-0.067 0.061,-0.077 0.051,-0.087C0.04,-0.097 0.031,-0.105 0.023,-0.11C0.08,-0.147 0.13,-0.195 0.174,-0.253C0.217,-0.31 0.251,-0.374 0.274,-0.443ZM0.264,-0.353L0.853,-0.353L0.853,0.084L0.741,0.084L0.741,-0.275L0.371,-0.275L0.371,0.085L0.264,0.085L0.264,-0.353Z" style="fill:rgb(0,84,176);fill-rule:nonzero;"/>
                            </g>
                            <g transform="matrix(37.6508,0,0,37.6508,464.651,405)">
                                <path d="M0.534,-0.347L0.639,-0.347L0.639,0.088L0.534,0.088L0.534,-0.347ZM0.243,-0.563L0.95,-0.563L0.95,-0.476L0.243,-0.476L0.243,-0.563ZM0.378,-0.642L0.477,-0.642L0.477,-0.399L0.691,-0.399L0.691,-0.642L0.795,-0.642L0.795,-0.315L0.378,-0.315L0.378,-0.642ZM0.282,-0.252L0.843,-0.252L0.843,-0.16L0.386,-0.16L0.386,0.056L0.282,0.056L0.282,-0.252ZM0.794,-0.252L0.899,-0.252L0.899,-0.051C0.899,-0.027 0.897,-0.009 0.891,0.005C0.886,0.019 0.874,0.03 0.857,0.038C0.841,0.045 0.821,0.049 0.797,0.051C0.772,0.052 0.744,0.053 0.71,0.053C0.708,0.039 0.705,0.023 0.699,0.006C0.694,-0.012 0.688,-0.027 0.682,-0.04C0.702,-0.039 0.722,-0.039 0.74,-0.039C0.759,-0.038 0.772,-0.038 0.778,-0.039C0.784,-0.039 0.788,-0.04 0.791,-0.042C0.793,-0.044 0.794,-0.048 0.794,-0.053L0.794,-0.252ZM0.475,-0.847L0.587,-0.847L0.587,-0.7L0.475,-0.7L0.475,-0.847ZM0.166,-0.751L0.958,-0.751L0.958,-0.655L0.166,-0.655L0.166,-0.751ZM0.114,-0.751L0.216,-0.751L0.216,-0.467C0.216,-0.427 0.215,-0.383 0.213,-0.335C0.21,-0.287 0.205,-0.237 0.198,-0.187C0.191,-0.137 0.18,-0.088 0.166,-0.04C0.153,0.007 0.134,0.05 0.112,0.089C0.106,0.083 0.098,0.076 0.087,0.068C0.076,0.06 0.065,0.052 0.054,0.045C0.042,0.038 0.032,0.033 0.024,0.03C0.045,-0.006 0.061,-0.045 0.073,-0.087C0.085,-0.129 0.094,-0.173 0.1,-0.217C0.106,-0.262 0.109,-0.305 0.111,-0.348C0.113,-0.391 0.114,-0.431 0.114,-0.467L0.114,-0.751Z" style="fill:rgb(0,84,176);fill-rule:nonzero;"/>
                            </g>
                            <g transform="matrix(37.6508,0,0,37.6508,502.302,405)">
                                <path d="M0.722,-0.749L0.834,-0.749L0.834,-0.052C0.834,-0.019 0.83,0.007 0.821,0.025C0.812,0.043 0.796,0.057 0.773,0.065C0.75,0.075 0.72,0.08 0.683,0.082C0.647,0.084 0.603,0.085 0.552,0.085C0.55,0.075 0.547,0.062 0.542,0.048C0.537,0.034 0.531,0.02 0.525,0.006C0.519,-0.008 0.513,-0.019 0.507,-0.029C0.532,-0.028 0.557,-0.027 0.583,-0.026C0.608,-0.026 0.63,-0.026 0.65,-0.026C0.67,-0.026 0.683,-0.026 0.691,-0.026C0.703,-0.026 0.711,-0.029 0.715,-0.032C0.72,-0.036 0.722,-0.044 0.722,-0.054L0.722,-0.749ZM0.146,-0.549L0.25,-0.549L0.25,-0.086L0.146,-0.086L0.146,-0.549ZM0.19,-0.549L0.568,-0.549L0.568,-0.164L0.19,-0.164L0.19,-0.266L0.461,-0.266L0.461,-0.447L0.19,-0.447L0.19,-0.549ZM0.05,-0.779L0.952,-0.779L0.952,-0.67L0.05,-0.67L0.05,-0.779Z" style="fill:rgb(0,84,176);fill-rule:nonzero;"/>
                            </g>
                            <g transform="matrix(37.6508,0,0,37.6508,539.952,405)">
                                <path d="M0.189,-0.85L0.301,-0.826C0.289,-0.797 0.276,-0.767 0.262,-0.736C0.248,-0.705 0.235,-0.676 0.221,-0.649C0.207,-0.621 0.194,-0.597 0.181,-0.575L0.088,-0.6C0.1,-0.622 0.113,-0.648 0.126,-0.677C0.138,-0.707 0.15,-0.736 0.162,-0.767C0.173,-0.797 0.182,-0.825 0.189,-0.85ZM0.033,-0.643C0.069,-0.645 0.11,-0.646 0.156,-0.648C0.202,-0.649 0.251,-0.651 0.302,-0.654C0.354,-0.657 0.405,-0.659 0.457,-0.661L0.456,-0.567C0.407,-0.564 0.358,-0.561 0.308,-0.557C0.258,-0.554 0.211,-0.551 0.166,-0.549C0.121,-0.546 0.079,-0.543 0.042,-0.541L0.033,-0.643ZM0.093,-0.487L0.41,-0.487L0.41,-0.398L0.192,-0.398L0.192,0.086L0.093,0.086L0.093,-0.487ZM0.36,-0.487L0.466,-0.487L0.466,-0.025C0.466,-0.001 0.463,0.018 0.457,0.033C0.452,0.047 0.441,0.058 0.424,0.067C0.408,0.075 0.389,0.08 0.366,0.082C0.343,0.083 0.316,0.084 0.286,0.084C0.283,0.07 0.279,0.054 0.272,0.035C0.265,0.017 0.258,0.001 0.251,-0.012C0.27,-0.011 0.289,-0.01 0.307,-0.01C0.325,-0.01 0.337,-0.01 0.343,-0.011C0.35,-0.011 0.354,-0.012 0.356,-0.014C0.359,-0.016 0.36,-0.02 0.36,-0.027L0.36,-0.487ZM0.138,-0.336L0.419,-0.336L0.419,-0.256L0.138,-0.256L0.138,-0.336ZM0.138,-0.189L0.419,-0.189L0.419,-0.108L0.138,-0.108L0.138,-0.189ZM0.549,-0.844L0.656,-0.844L0.656,-0.535C0.656,-0.517 0.658,-0.506 0.664,-0.502C0.67,-0.497 0.682,-0.495 0.702,-0.495L0.826,-0.495C0.838,-0.495 0.846,-0.498 0.852,-0.503C0.858,-0.508 0.862,-0.518 0.865,-0.533C0.868,-0.549 0.869,-0.571 0.871,-0.602C0.878,-0.596 0.888,-0.591 0.899,-0.585C0.91,-0.58 0.921,-0.575 0.934,-0.571C0.946,-0.567 0.957,-0.564 0.966,-0.562C0.963,-0.519 0.956,-0.486 0.947,-0.463C0.938,-0.439 0.925,-0.422 0.907,-0.413C0.889,-0.404 0.865,-0.399 0.836,-0.399L0.689,-0.399C0.651,-0.399 0.623,-0.403 0.602,-0.411C0.582,-0.419 0.568,-0.433 0.56,-0.452C0.553,-0.472 0.549,-0.499 0.549,-0.533L0.549,-0.844ZM0.851,-0.781L0.919,-0.702C0.89,-0.688 0.858,-0.675 0.823,-0.662C0.789,-0.649 0.754,-0.637 0.718,-0.625C0.682,-0.614 0.648,-0.604 0.614,-0.595C0.612,-0.605 0.608,-0.617 0.601,-0.632C0.595,-0.646 0.589,-0.658 0.583,-0.669C0.615,-0.679 0.647,-0.69 0.68,-0.702C0.712,-0.715 0.743,-0.728 0.773,-0.742C0.803,-0.755 0.829,-0.768 0.851,-0.781ZM0.549,-0.377L0.655,-0.377L0.655,-0.055C0.655,-0.038 0.658,-0.027 0.664,-0.022C0.67,-0.017 0.684,-0.015 0.704,-0.015L0.832,-0.015C0.845,-0.015 0.854,-0.018 0.861,-0.024C0.867,-0.03 0.871,-0.041 0.874,-0.059C0.877,-0.077 0.879,-0.103 0.88,-0.138C0.892,-0.13 0.907,-0.123 0.926,-0.115C0.944,-0.108 0.961,-0.102 0.975,-0.099C0.972,-0.052 0.965,-0.016 0.956,0.01C0.947,0.035 0.933,0.054 0.915,0.064C0.898,0.074 0.873,0.079 0.842,0.079L0.69,0.079C0.653,0.079 0.624,0.075 0.603,0.067C0.583,0.059 0.569,0.046 0.561,0.026C0.553,0.007 0.549,-0.02 0.549,-0.055L0.549,-0.377ZM0.859,-0.332L0.93,-0.253C0.9,-0.236 0.868,-0.221 0.832,-0.207C0.796,-0.192 0.759,-0.179 0.722,-0.166C0.685,-0.154 0.648,-0.143 0.613,-0.133C0.611,-0.143 0.606,-0.156 0.6,-0.171C0.593,-0.186 0.587,-0.198 0.581,-0.208C0.614,-0.219 0.648,-0.231 0.682,-0.244C0.717,-0.258 0.749,-0.273 0.78,-0.287C0.81,-0.302 0.837,-0.317 0.859,-0.332ZM0.322,-0.745L0.412,-0.779C0.429,-0.756 0.446,-0.73 0.462,-0.702C0.478,-0.675 0.493,-0.648 0.506,-0.621C0.519,-0.594 0.529,-0.57 0.536,-0.548L0.439,-0.509C0.433,-0.53 0.424,-0.554 0.412,-0.582C0.4,-0.609 0.386,-0.637 0.37,-0.665C0.355,-0.694 0.339,-0.72 0.322,-0.745Z" style="fill:rgb(0,84,176);fill-rule:nonzero;"/>
                            </g>
                            <g transform="matrix(37.6508,0,0,37.6508,577.603,405)">
                            </g>
                        </g>
                        <g transform="matrix(1.04167,0,0,1.04167,455,360)">
                            <g transform="matrix(1,0,0,1,-12,-12)">
                                <g transform="matrix(0.025,0,0,0.025,0,24)">
                                    <path d="M240,-160L280,-320L120,-320L140,-400L300,-400L340,-560L180,-560L200,-640L360,-640L400,-800L480,-800L440,-640L600,-640L640,-800L720,-800L680,-640L840,-640L820,-560L660,-560L620,-400L780,-400L760,-320L600,-320L560,-160L480,-160L520,-320L360,-320L320,-160L240,-160ZM380,-400L540,-400L580,-560L420,-560L380,-400Z" style="fill:rgb(0,83,176);fill-rule:nonzero;"/>
                                </g>
                            </g>
                        </g>
                    </g>
                </g>
                <g transform="matrix(1,0,0,1,442,0)">
                    <g transform="matrix(0.676923,0,0,0.242424,108.308,246.667)">
                        <path d="M815,401.5L815,533.5C815,542.607 812.352,550 809.091,550L495.909,550C492.648,550 490,542.607 490,533.5L490,401.5C490,392.393 492.648,385 495.909,385L809.091,385C812.352,385 815,392.393 815,401.5Z" style="fill:rgb(190,220,255);"/>
                    </g>
                    <g transform="matrix(0.906393,0,0,0.906393,52.0848,33.7068)">
                        <g transform="matrix(0.709008,0,0,0.709008,169.986,82.9641)">
                            <g transform="matrix(37.6508,0,0,37.6508,427,405)">
                                <path d="M0.058,-0.573L0.945,-0.573L0.945,-0.462L0.058,-0.462L0.058,-0.573ZM0.564,-0.528C0.585,-0.451 0.613,-0.378 0.649,-0.311C0.685,-0.244 0.729,-0.186 0.781,-0.136C0.834,-0.085 0.895,-0.046 0.965,-0.017C0.957,-0.009 0.947,0 0.937,0.012C0.927,0.025 0.917,0.037 0.908,0.049C0.899,0.062 0.891,0.073 0.885,0.084C0.81,0.048 0.745,0.002 0.69,-0.055C0.635,-0.112 0.589,-0.178 0.551,-0.253C0.513,-0.329 0.482,-0.412 0.456,-0.503L0.564,-0.528ZM0.44,-0.846L0.557,-0.846C0.557,-0.798 0.555,-0.746 0.553,-0.69C0.551,-0.635 0.546,-0.578 0.538,-0.521C0.53,-0.463 0.517,-0.406 0.499,-0.348C0.481,-0.291 0.456,-0.236 0.424,-0.183C0.392,-0.13 0.351,-0.081 0.302,-0.036C0.252,0.01 0.191,0.05 0.12,0.084C0.111,0.07 0.099,0.054 0.084,0.037C0.069,0.02 0.054,0.005 0.038,-0.006C0.107,-0.037 0.165,-0.073 0.212,-0.114C0.259,-0.155 0.297,-0.199 0.326,-0.247C0.355,-0.295 0.378,-0.345 0.393,-0.397C0.409,-0.449 0.42,-0.501 0.426,-0.553C0.432,-0.606 0.436,-0.657 0.437,-0.707C0.439,-0.756 0.44,-0.803 0.44,-0.846Z" style="fill:rgb(0,84,176);fill-rule:nonzero;"/>
                            </g>
                            <g transform="matrix(37.6508,0,0,37.6508,464.651,405)">
                                <path d="M0.425,-0.821L0.548,-0.821C0.546,-0.794 0.544,-0.758 0.541,-0.714C0.537,-0.671 0.531,-0.622 0.522,-0.569C0.513,-0.515 0.5,-0.459 0.482,-0.4C0.463,-0.342 0.439,-0.284 0.408,-0.226C0.376,-0.168 0.337,-0.113 0.289,-0.061C0.241,-0.008 0.183,0.038 0.115,0.078C0.106,0.064 0.093,0.05 0.076,0.034C0.06,0.019 0.043,0.005 0.025,-0.007C0.092,-0.044 0.149,-0.086 0.195,-0.134C0.24,-0.182 0.278,-0.232 0.306,-0.286C0.335,-0.339 0.358,-0.393 0.374,-0.447C0.389,-0.501 0.401,-0.552 0.408,-0.601C0.415,-0.649 0.419,-0.693 0.421,-0.731C0.423,-0.769 0.424,-0.799 0.425,-0.821ZM0.543,-0.796C0.544,-0.784 0.545,-0.764 0.547,-0.737C0.549,-0.709 0.553,-0.676 0.56,-0.638C0.566,-0.6 0.575,-0.558 0.588,-0.513C0.6,-0.468 0.617,-0.422 0.637,-0.375C0.658,-0.328 0.684,-0.282 0.715,-0.237C0.746,-0.192 0.783,-0.15 0.827,-0.112C0.871,-0.073 0.922,-0.04 0.981,-0.013C0.964,-0 0.948,0.014 0.933,0.031C0.919,0.048 0.907,0.063 0.898,0.078C0.837,0.048 0.784,0.012 0.738,-0.03C0.692,-0.073 0.653,-0.118 0.621,-0.168C0.589,-0.217 0.562,-0.267 0.54,-0.319C0.519,-0.37 0.501,-0.421 0.488,-0.47C0.475,-0.52 0.466,-0.566 0.459,-0.608C0.452,-0.651 0.448,-0.688 0.445,-0.719C0.443,-0.75 0.441,-0.772 0.44,-0.786L0.543,-0.796Z" style="fill:rgb(0,84,176);fill-rule:nonzero;"/>
                            </g>
                            <g transform="matrix(37.6508,0,0,37.6508,502.302,405)">
                                <path d="M0.462,-0.797C0.458,-0.78 0.455,-0.765 0.452,-0.752C0.45,-0.739 0.448,-0.726 0.446,-0.713C0.443,-0.698 0.44,-0.677 0.437,-0.65C0.433,-0.623 0.429,-0.593 0.424,-0.56C0.42,-0.527 0.415,-0.493 0.411,-0.457C0.407,-0.422 0.403,-0.387 0.399,-0.353C0.395,-0.319 0.392,-0.288 0.39,-0.261C0.388,-0.233 0.387,-0.21 0.387,-0.193C0.387,-0.15 0.399,-0.117 0.425,-0.093C0.451,-0.07 0.489,-0.058 0.541,-0.058C0.589,-0.058 0.629,-0.065 0.663,-0.078C0.696,-0.091 0.722,-0.109 0.739,-0.132C0.757,-0.155 0.766,-0.181 0.766,-0.211C0.766,-0.245 0.757,-0.278 0.739,-0.311C0.722,-0.344 0.696,-0.376 0.661,-0.407L0.787,-0.434C0.821,-0.393 0.846,-0.354 0.862,-0.317C0.878,-0.28 0.886,-0.24 0.886,-0.197C0.886,-0.147 0.872,-0.103 0.843,-0.064C0.815,-0.026 0.775,0.004 0.723,0.025C0.671,0.046 0.609,0.057 0.538,0.057C0.488,0.057 0.443,0.049 0.403,0.034C0.364,0.018 0.333,-0.007 0.31,-0.041C0.287,-0.075 0.276,-0.12 0.276,-0.175C0.276,-0.196 0.278,-0.224 0.281,-0.258C0.284,-0.292 0.288,-0.33 0.293,-0.372C0.298,-0.413 0.304,-0.455 0.309,-0.498C0.315,-0.541 0.32,-0.582 0.324,-0.621C0.328,-0.659 0.332,-0.693 0.334,-0.72C0.336,-0.742 0.337,-0.759 0.337,-0.77C0.337,-0.782 0.336,-0.793 0.335,-0.804L0.462,-0.797ZM0.115,-0.671C0.144,-0.661 0.176,-0.653 0.212,-0.647C0.247,-0.641 0.283,-0.637 0.319,-0.634C0.355,-0.631 0.39,-0.629 0.422,-0.629C0.461,-0.629 0.498,-0.63 0.532,-0.633C0.566,-0.635 0.596,-0.638 0.622,-0.643L0.619,-0.536C0.588,-0.533 0.558,-0.531 0.527,-0.529C0.497,-0.527 0.461,-0.526 0.419,-0.526C0.387,-0.526 0.353,-0.528 0.317,-0.531C0.28,-0.535 0.245,-0.54 0.209,-0.546C0.173,-0.552 0.14,-0.559 0.11,-0.567L0.115,-0.671ZM0.093,-0.422C0.128,-0.41 0.164,-0.401 0.2,-0.395C0.237,-0.388 0.273,-0.384 0.309,-0.381C0.345,-0.379 0.379,-0.378 0.412,-0.378C0.444,-0.378 0.477,-0.379 0.513,-0.381C0.548,-0.383 0.582,-0.386 0.615,-0.39L0.612,-0.283C0.583,-0.28 0.553,-0.278 0.523,-0.276C0.493,-0.275 0.462,-0.274 0.43,-0.274C0.367,-0.274 0.305,-0.277 0.245,-0.284C0.185,-0.291 0.132,-0.301 0.087,-0.314L0.093,-0.422Z" style="fill:rgb(0,84,176);fill-rule:nonzero;"/>
                            </g>
                            <g transform="matrix(37.6508,0,0,37.6508,539.952,405)">
                                <path d="M0.055,-0.278L0.947,-0.278L0.947,-0.184L0.055,-0.184L0.055,-0.278ZM0.444,-0.363L0.553,-0.363L0.553,0.085L0.444,0.085L0.444,-0.363ZM0.408,-0.238L0.495,-0.2C0.465,-0.16 0.429,-0.123 0.386,-0.087C0.344,-0.052 0.298,-0.021 0.249,0.007C0.201,0.035 0.151,0.058 0.102,0.076C0.096,0.067 0.09,0.057 0.081,0.046C0.073,0.035 0.064,0.024 0.055,0.013C0.046,0.002 0.038,-0.007 0.03,-0.014C0.078,-0.028 0.127,-0.047 0.174,-0.07C0.222,-0.093 0.267,-0.119 0.308,-0.147C0.348,-0.176 0.382,-0.207 0.408,-0.238ZM0.589,-0.235C0.615,-0.205 0.649,-0.176 0.69,-0.148C0.73,-0.121 0.775,-0.096 0.824,-0.074C0.873,-0.053 0.922,-0.035 0.971,-0.022C0.963,-0.015 0.954,-0.006 0.945,0.004C0.936,0.015 0.928,0.026 0.919,0.038C0.911,0.049 0.904,0.059 0.899,0.068C0.85,0.051 0.8,0.03 0.751,0.003C0.702,-0.024 0.655,-0.054 0.612,-0.087C0.569,-0.121 0.531,-0.157 0.5,-0.194L0.589,-0.235ZM0.407,-0.51L0.407,-0.432L0.59,-0.432L0.59,-0.51L0.407,-0.51ZM0.407,-0.665L0.407,-0.588L0.59,-0.588L0.59,-0.665L0.407,-0.665ZM0.307,-0.747L0.694,-0.747L0.694,-0.35L0.307,-0.35L0.307,-0.747ZM0.45,-0.848L0.569,-0.833C0.56,-0.807 0.55,-0.783 0.541,-0.759C0.531,-0.735 0.522,-0.715 0.513,-0.697L0.419,-0.715C0.425,-0.734 0.431,-0.756 0.437,-0.781C0.443,-0.806 0.447,-0.828 0.45,-0.848ZM0.053,-0.724L0.127,-0.785C0.148,-0.772 0.168,-0.757 0.189,-0.739C0.21,-0.722 0.229,-0.705 0.247,-0.687C0.265,-0.669 0.279,-0.652 0.29,-0.637L0.211,-0.568C0.201,-0.583 0.188,-0.6 0.171,-0.619C0.153,-0.637 0.135,-0.656 0.114,-0.674C0.094,-0.693 0.073,-0.709 0.053,-0.724ZM0.676,-0.484L0.738,-0.555C0.763,-0.542 0.791,-0.528 0.82,-0.512C0.849,-0.495 0.876,-0.479 0.903,-0.462C0.93,-0.445 0.952,-0.429 0.969,-0.415L0.902,-0.334C0.886,-0.349 0.865,-0.365 0.84,-0.383C0.814,-0.401 0.787,-0.419 0.758,-0.436C0.73,-0.454 0.702,-0.47 0.676,-0.484ZM0.847,-0.797L0.939,-0.742C0.913,-0.713 0.884,-0.685 0.854,-0.656C0.823,-0.628 0.795,-0.603 0.769,-0.583L0.689,-0.636C0.706,-0.65 0.724,-0.666 0.744,-0.684C0.763,-0.703 0.782,-0.722 0.8,-0.742C0.819,-0.761 0.834,-0.78 0.847,-0.797ZM0.032,-0.42C0.062,-0.434 0.099,-0.453 0.141,-0.476C0.184,-0.499 0.227,-0.522 0.271,-0.546L0.3,-0.46C0.265,-0.438 0.228,-0.416 0.19,-0.393C0.152,-0.37 0.117,-0.35 0.085,-0.331L0.032,-0.42Z" style="fill:rgb(0,84,176);fill-rule:nonzero;"/>
                            </g>
                            <g transform="matrix(37.6508,0,0,37.6508,577.603,405)">
                                <path d="M0.363,-0.789C0.36,-0.77 0.357,-0.749 0.355,-0.727C0.353,-0.705 0.352,-0.684 0.351,-0.665C0.349,-0.638 0.348,-0.604 0.347,-0.565C0.345,-0.525 0.344,-0.483 0.343,-0.439C0.342,-0.395 0.341,-0.352 0.34,-0.31C0.339,-0.267 0.339,-0.23 0.339,-0.197C0.339,-0.163 0.345,-0.135 0.358,-0.115C0.37,-0.095 0.388,-0.081 0.409,-0.072C0.431,-0.063 0.456,-0.059 0.484,-0.059C0.526,-0.059 0.565,-0.065 0.599,-0.076C0.634,-0.087 0.666,-0.102 0.694,-0.121C0.722,-0.14 0.747,-0.162 0.77,-0.187C0.792,-0.211 0.813,-0.237 0.831,-0.264L0.912,-0.165C0.895,-0.141 0.874,-0.116 0.849,-0.09C0.823,-0.064 0.792,-0.039 0.757,-0.016C0.722,0.007 0.681,0.026 0.635,0.04C0.589,0.054 0.538,0.061 0.482,0.061C0.43,0.061 0.384,0.053 0.344,0.037C0.305,0.021 0.274,-0.004 0.253,-0.039C0.231,-0.074 0.22,-0.12 0.22,-0.176C0.22,-0.203 0.22,-0.235 0.221,-0.27C0.222,-0.306 0.223,-0.343 0.224,-0.381C0.225,-0.419 0.226,-0.457 0.227,-0.493C0.227,-0.53 0.228,-0.563 0.229,-0.593C0.229,-0.623 0.23,-0.647 0.23,-0.665C0.23,-0.688 0.229,-0.71 0.227,-0.731C0.225,-0.752 0.222,-0.772 0.218,-0.79L0.363,-0.789Z" style="fill:rgb(0,84,176);fill-rule:nonzero;"/>
                            </g>
                            <g transform="matrix(37.6508,0,0,37.6508,615.254,405)">
                                <path d="M0.691,-0.781C0.688,-0.773 0.686,-0.763 0.683,-0.751C0.681,-0.739 0.678,-0.727 0.676,-0.716C0.673,-0.704 0.671,-0.694 0.669,-0.687C0.659,-0.643 0.647,-0.598 0.634,-0.552C0.621,-0.506 0.606,-0.461 0.589,-0.416C0.573,-0.371 0.555,-0.329 0.535,-0.29C0.515,-0.251 0.494,-0.217 0.47,-0.187C0.441,-0.149 0.414,-0.118 0.388,-0.092C0.362,-0.066 0.336,-0.047 0.31,-0.035C0.284,-0.022 0.255,-0.015 0.225,-0.015C0.198,-0.015 0.173,-0.023 0.149,-0.038C0.126,-0.052 0.107,-0.074 0.093,-0.103C0.078,-0.132 0.071,-0.167 0.071,-0.209C0.071,-0.253 0.079,-0.297 0.095,-0.341C0.111,-0.384 0.134,-0.425 0.162,-0.462C0.191,-0.499 0.224,-0.53 0.262,-0.555C0.314,-0.589 0.366,-0.614 0.417,-0.628C0.468,-0.642 0.52,-0.649 0.573,-0.649C0.641,-0.649 0.701,-0.635 0.753,-0.606C0.806,-0.577 0.847,-0.537 0.877,-0.486C0.907,-0.435 0.922,-0.375 0.922,-0.307C0.922,-0.238 0.907,-0.178 0.876,-0.128C0.845,-0.077 0.803,-0.037 0.749,-0.007C0.695,0.023 0.633,0.043 0.563,0.054L0.495,-0.049C0.55,-0.054 0.596,-0.064 0.636,-0.079C0.675,-0.094 0.707,-0.114 0.733,-0.138C0.758,-0.161 0.777,-0.188 0.789,-0.218C0.801,-0.248 0.807,-0.279 0.807,-0.312C0.807,-0.359 0.797,-0.4 0.776,-0.436C0.756,-0.471 0.728,-0.499 0.691,-0.519C0.654,-0.539 0.611,-0.549 0.561,-0.549C0.51,-0.549 0.463,-0.541 0.421,-0.525C0.379,-0.508 0.34,-0.487 0.304,-0.46C0.278,-0.441 0.255,-0.418 0.235,-0.391C0.216,-0.364 0.201,-0.335 0.191,-0.305C0.181,-0.275 0.176,-0.246 0.176,-0.218C0.176,-0.191 0.181,-0.17 0.192,-0.154C0.203,-0.139 0.218,-0.131 0.237,-0.131C0.251,-0.131 0.265,-0.135 0.279,-0.143C0.293,-0.151 0.308,-0.162 0.322,-0.176C0.336,-0.19 0.35,-0.205 0.364,-0.223C0.377,-0.241 0.391,-0.26 0.403,-0.28C0.422,-0.308 0.439,-0.339 0.456,-0.374C0.472,-0.41 0.487,-0.446 0.501,-0.485C0.515,-0.524 0.527,-0.561 0.537,-0.599C0.546,-0.636 0.554,-0.671 0.56,-0.703C0.562,-0.717 0.564,-0.732 0.566,-0.75C0.567,-0.767 0.567,-0.782 0.567,-0.793L0.691,-0.781ZM0.272,-0.745C0.275,-0.729 0.279,-0.713 0.282,-0.697C0.286,-0.681 0.29,-0.666 0.293,-0.651C0.301,-0.624 0.309,-0.595 0.319,-0.564C0.329,-0.533 0.34,-0.502 0.352,-0.471C0.363,-0.44 0.375,-0.412 0.387,-0.385C0.399,-0.359 0.411,-0.337 0.422,-0.318C0.439,-0.291 0.459,-0.263 0.481,-0.233C0.503,-0.203 0.526,-0.177 0.55,-0.155L0.459,-0.082C0.439,-0.105 0.421,-0.127 0.404,-0.149C0.388,-0.17 0.371,-0.195 0.354,-0.222C0.34,-0.244 0.325,-0.269 0.311,-0.299C0.297,-0.328 0.283,-0.36 0.269,-0.394C0.255,-0.429 0.241,-0.464 0.229,-0.5C0.216,-0.537 0.204,-0.572 0.193,-0.608C0.188,-0.625 0.182,-0.642 0.176,-0.658C0.17,-0.675 0.163,-0.691 0.154,-0.708L0.272,-0.745Z" style="fill:rgb(0,84,176);fill-rule:nonzero;"/>
                            </g>
                            <g transform="matrix(37.6508,0,0,37.6508,652.905,405)">
                                <path d="M0.225,-0.755C0.238,-0.753 0.253,-0.752 0.268,-0.751C0.283,-0.751 0.297,-0.75 0.31,-0.75C0.321,-0.75 0.337,-0.75 0.359,-0.751C0.381,-0.751 0.405,-0.752 0.433,-0.753C0.46,-0.753 0.488,-0.754 0.515,-0.755C0.543,-0.756 0.568,-0.757 0.59,-0.758C0.612,-0.759 0.628,-0.76 0.64,-0.761C0.659,-0.762 0.674,-0.764 0.684,-0.766C0.695,-0.767 0.704,-0.769 0.71,-0.771L0.769,-0.69C0.759,-0.683 0.748,-0.676 0.736,-0.669C0.725,-0.662 0.714,-0.654 0.703,-0.646C0.69,-0.636 0.674,-0.624 0.654,-0.608C0.635,-0.592 0.614,-0.576 0.592,-0.557C0.57,-0.539 0.548,-0.521 0.527,-0.504C0.506,-0.487 0.487,-0.471 0.469,-0.457C0.488,-0.463 0.506,-0.466 0.524,-0.468C0.541,-0.47 0.559,-0.471 0.577,-0.471C0.633,-0.471 0.683,-0.46 0.728,-0.439C0.772,-0.418 0.807,-0.388 0.833,-0.351C0.859,-0.315 0.872,-0.272 0.872,-0.224C0.872,-0.171 0.858,-0.124 0.831,-0.082C0.804,-0.04 0.764,-0.007 0.711,0.017C0.658,0.042 0.593,0.054 0.515,0.054C0.469,0.054 0.428,0.047 0.392,0.034C0.356,0.021 0.328,0.003 0.308,-0.021C0.288,-0.044 0.278,-0.072 0.278,-0.104C0.278,-0.13 0.285,-0.154 0.299,-0.177C0.314,-0.2 0.334,-0.218 0.36,-0.232C0.386,-0.246 0.416,-0.253 0.45,-0.253C0.496,-0.253 0.534,-0.243 0.565,-0.225C0.596,-0.207 0.62,-0.182 0.636,-0.152C0.653,-0.121 0.662,-0.088 0.663,-0.053L0.559,-0.038C0.558,-0.076 0.547,-0.107 0.528,-0.131C0.509,-0.155 0.483,-0.167 0.45,-0.167C0.43,-0.167 0.414,-0.162 0.402,-0.151C0.389,-0.141 0.383,-0.128 0.383,-0.114C0.383,-0.094 0.393,-0.078 0.414,-0.066C0.434,-0.054 0.461,-0.048 0.494,-0.048C0.55,-0.048 0.598,-0.055 0.637,-0.069C0.676,-0.083 0.705,-0.103 0.725,-0.13C0.745,-0.157 0.755,-0.189 0.755,-0.226C0.755,-0.257 0.746,-0.284 0.727,-0.307C0.709,-0.331 0.683,-0.35 0.651,-0.363C0.619,-0.376 0.583,-0.383 0.543,-0.383C0.503,-0.383 0.467,-0.378 0.435,-0.369C0.402,-0.359 0.372,-0.346 0.343,-0.328C0.315,-0.311 0.287,-0.29 0.26,-0.265C0.232,-0.24 0.205,-0.212 0.176,-0.181L0.095,-0.265C0.113,-0.28 0.134,-0.297 0.158,-0.316C0.181,-0.335 0.205,-0.355 0.229,-0.375C0.253,-0.395 0.276,-0.414 0.297,-0.432C0.318,-0.45 0.336,-0.465 0.351,-0.477C0.365,-0.489 0.381,-0.502 0.401,-0.518C0.42,-0.534 0.44,-0.551 0.461,-0.568C0.482,-0.585 0.501,-0.602 0.52,-0.617C0.539,-0.633 0.554,-0.646 0.566,-0.657C0.556,-0.657 0.542,-0.656 0.525,-0.656C0.508,-0.655 0.489,-0.654 0.468,-0.653C0.447,-0.653 0.426,-0.652 0.406,-0.651C0.385,-0.65 0.366,-0.649 0.348,-0.648C0.331,-0.647 0.317,-0.646 0.306,-0.645C0.294,-0.645 0.28,-0.644 0.267,-0.643C0.253,-0.641 0.24,-0.64 0.229,-0.638L0.225,-0.755Z" style="fill:rgb(0,84,176);fill-rule:nonzero;"/>
                            </g>
                            <g transform="matrix(37.6508,0,0,37.6508,690.555,405)">
                            </g>
                        </g>
                        <g transform="matrix(1.04167,0,0,1.04167,455,360)">
                            <g transform="matrix(1,0,0,1,-12,-12)">
                                <g transform="matrix(0.025,0,0,0.025,0,24)">
                                    <path d="M240,-160L280,-320L120,-320L140,-400L300,-400L340,-560L180,-560L200,-640L360,-640L400,-800L480,-800L440,-640L600,-640L640,-800L720,-800L680,-640L840,-640L820,-560L660,-560L620,-400L780,-400L760,-320L600,-320L560,-160L480,-160L520,-320L360,-320L320,-160L240,-160ZM380,-400L540,-400L580,-560L420,-560L380,-400Z" style="fill:rgb(0,83,176);fill-rule:nonzero;"/>
                                </g>
                            </g>
                        </g>
                    </g>
                </g>
            </g>
            <g id="団体名" transform="matrix(0.295236,0,0,0.295236,283.894,227.12)">
                <g transform="matrix(125.644,0,0,125.644,2018.68,320)">
                </g>
                <text x="520px" y="320px" style="font-family:'TazuganeGothicStdN-Regular', 'Tazugane Gothic StdN', sans-serif;font-size:125.644px;">団体名は                    <tspan x="1021.82px 1145.96px 1270.85px " y="320px 320px 320px ">ここに</tspan>入力さ                    <tspan x="1770.41px 1893.04px " y="320px 320px ">れる</tspan>
                </text>
            </g>
            <g id="企画名" transform="matrix(0.517241,0,0,0.517241,5.72547,-33.7931)">
                <g id="企画名2" transform="matrix(0.912323,0,0,0.912323,355.385,287.324)">
                    <g transform="matrix(125.644,0,0,125.644,2017.8,320)">
                    </g>
                    <text x="520px" y="320px" style="font-family:'TazuganeGothicStdN-Regular', 'Tazugane Gothic StdN', sans-serif;font-size:125.644px;">そ                        <tspan x="644.89px 766.011px 890.148px " y="320px 320px 320px ">のため</tspan>には                        <tspan x="1266.33px 1389.58px " y="320px 320px ">この</tspan>幅が要る
                    </text>
                </g>
                <g id="企画名1" transform="matrix(0.923694,0,0,0.923694,353.376,153.668)">
                    <g transform="matrix(125.644,0,0,125.644,2150.36,320)">
                    </g>
                    <text x="520px" y="320px" style="font-family:'TazuganeGothicStdN-Regular', 'Tazugane Gothic StdN', sans-serif;font-size:125.644px;">二十五文字の企画名を入れ                        <tspan x="2024.72px " y="320px ">る</tspan>
                    </text>
                </g>
            </g>
            <g id="見出し" transform="matrix(1.08108,0,0,1.08108,-215.937,-241.946)">
                <g id="見出し2" transform="matrix(0.459592,0,0,0.459592,835.499,248.921)">
                    <g transform="matrix(100.262,0,0,100.262,2898.42,450)">
                    </g>
                    <text x="1400px" y="450px" style="font-family:'TazuganeGothicStdN-Regular', 'Tazugane Gothic StdN', sans-serif;font-size:100.262px;">さ                        <tspan x="1497.86px 1598.12px 1697.78px " y="450px 450px 450px ">れなけ</tspan>ればな                        <tspan x="2096.42px " y="450px ">ら</tspan>ないと言う事実
                    </text>
                </g>
                <g id="見出し3" transform="matrix(0.459592,0,0,0.459592,839.187,192.339)">
                    <g transform="matrix(100.262,0,0,100.262,2893.51,450)">
                    </g>
                    <text x="1400px" y="450px" style="font-family:'TazuganeGothicStdN-Regular', 'Tazugane Gothic StdN', sans-serif;font-size:100.262px;">三十文字もの見出し                        <tspan x="2300.46px 2400.12px 2499.18px 2592.72px " y="450px 450px 450px 450px ">はここへ</tspan>入力
                    </text>
                </g>
            </g>
            <g id="紹介文" transform="matrix(0.599689,0,0,0.599689,478.387,-11.33)">
                <g id="紹介文3" transform="matrix(0.436697,0,0,0.436697,901.609,391.478)">
                    <g transform="matrix(100.262,0,0,100.262,4703.25,450)">
                    </g>
                    <text x="1400px" y="450px" style="font-family:'TazuganeGothicStdN-Regular', 'Tazugane Gothic StdN', sans-serif;font-size:100.262px;">こ                        <tspan x="1499.06px 1598.72px " y="450px 450px ">こに</tspan>紹介文詳細が入力こ                        <tspan x="2600.14px 2699.8px " y="450px 450px ">こに</tspan>紹介文詳細が入力こ                        <tspan x="3701.22px 3800.88px " y="450px 450px ">こに</tspan>紹介文詳細が入力
                    </text>
                </g>
                <g id="紹介文2" transform="matrix(0.436697,0,0,0.436697,901.836,452.159)">
                    <g transform="matrix(100.262,0,0,100.262,4703.25,450)">
                    </g>
                    <text x="1400px" y="450px" style="font-family:'TazuganeGothicStdN-Regular', 'Tazugane Gothic StdN', sans-serif;font-size:100.262px;">こ                        <tspan x="1499.06px 1598.72px " y="450px 450px ">こに</tspan>紹介文詳細が入力こ                        <tspan x="2600.14px 2699.8px " y="450px 450px ">こに</tspan>紹介文詳細が入力こ                        <tspan x="3701.22px 3800.88px " y="450px 450px ">こに</tspan>紹介文詳細が入力
                    </text>
                </g>
                <g id="紹介文1" transform="matrix(0.436697,0,0,0.436697,901.723,330.798)">
                    <g transform="matrix(100.262,0,0,100.262,4703.25,450)">
                    </g>
                    <text x="1400px" y="450px" style="font-family:'TazuganeGothicStdN-Regular', 'Tazugane Gothic StdN', sans-serif;font-size:100.262px;">こ                        <tspan x="1499.06px 1598.72px " y="450px 450px ">こに</tspan>紹介文詳細が入力こ                        <tspan x="2600.14px 2699.8px " y="450px 450px ">こに</tspan>紹介文詳細が入力こ                        <tspan x="3701.22px 3800.88px " y="450px 450px ">こに</tspan>紹介文詳細が入力
                    </text>
                </g>
            </g>
            <g id="メインカーブ" transform="matrix(1,0,0,1,-110,-220)">
                <path d="M680,320L2328.97,319.897C2368.17,319.897 2400,351.726 2400,390.931L2400,600" style="fill:none;stroke:rgb(68,153,186);stroke-width:6.75px;"/>
            </g>
            <g id="場所2カーブ" transform="matrix(1,0,0,1,-90,-410)">
                <path d="M880,509.986C836.217,455.649 827.043,450.181 773,449.138C736.703,448.437 660,449.138 660,449.138" style="fill:none;stroke:rgb(68,153,186);stroke-width:6.75px;"/>
            </g>
        </g>
    </g>
</svg>
